<?xml version="1.0" encoding="UTF-8" standalone="no"?>
<!-- Created with Inkscape (http://www.inkscape.org/) -->

<svg
   width="334.259"
   height="334.259"
   viewBox="0 0 88.439351 88.439363"
   version="1.1"
   id="svg1"
   inkscape:version="1.4.2 (f4327f4, 2025-05-13)"
   sodipodi:docname="icon.svg"
   xmlns:inkscape="http://www.inkscape.org/namespaces/inkscape"
   xmlns:sodipodi="http://sodipodi.sourceforge.net/DTD/sodipodi-0.dtd"
   xmlns="http://www.w3.org/2000/svg"
   xmlns:svg="http://www.w3.org/2000/svg">
  <sodipodi:namedview
     id="namedview1"
     pagecolor="#ffffff"
     bordercolor="#000000"
     borderopacity="0.25"
     inkscape:showpageshadow="2"
     inkscape:pageopacity="0.0"
     inkscape:pagecheckerboard="0"
     inkscape:deskcolor="#d1d1d1"
     inkscape:document-units="mm"
     inkscape:zoom="1.9477379"
     inkscape:cx="160.18582"
     inkscape:cy="182.006"
     inkscape:window-width="1920"
     inkscape:window-height="991"
     inkscape:window-x="-9"
     inkscape:window-y="-9"
     inkscape:window-maximized="1"
     inkscape:current-layer="layer1" />
  <defs
     id="defs1" />
  <g
     inkscape:label="Layer 1"
     inkscape:groupmode="layer"
     id="layer1"
     transform="translate(-88.565947,-95.500975)">
    <g
       id="g10"
       transform="translate(3.426627,70.889835)"
       style="stroke:none">
      <path
         style="font-size:83.7658px;font-family:Anta;-inkscape-font-specification:'Anta, Normal';fill:#ee6100;stroke-width:4.505;stroke-linecap:round;stroke-linejoin:round;stroke-opacity:0"
         d="m 133.81406,48.948577 q 0,-1.513347 -1.10433,-2.57678 -1.06343,-1.104334 -2.61768,-1.104334 -1.51335,0 -2.61768,1.104334 -1.06344,1.063433 -1.06344,2.57678 0,1.513347 1.06344,2.617681 1.10433,1.063433 2.61768,1.063433 1.55425,0 2.61768,-1.063433 1.10433,-1.104334 1.10433,-2.617681 z m 19.1827,2.167767 q 0,-1.186137 -0.89983,-2.045063 -0.85892,-0.899828 -2.08596,-0.899828 -1.18614,0 -2.08597,0.899828 -0.85892,0.858926 -0.85892,2.045063 0,1.227038 0.85892,2.126866 0.89983,0.858927 2.08597,0.858927 1.22704,0 2.08596,-0.858927 0.89983,-0.899828 0.89983,-2.126866 z m 0,11.779566 q 0,-1.186137 -0.89983,-2.045064 -0.85892,-0.899828 -2.08596,-0.899828 -1.18614,0 -2.08597,0.899828 -0.85892,0.858927 -0.85892,2.045064 0,1.227038 0.85892,2.126866 0.89983,0.858926 2.08597,0.858926 1.22704,0 2.08596,-0.858926 0.89983,-0.899828 0.89983,-2.126866 z m -8.91648,-2.863089 q -1.18613,0 -2.08596,-0.858927 -0.85893,-0.899828 -0.85893,-2.126866 0,-1.186137 0.85893,-2.045063 0.89983,-0.899828 2.08596,-0.899828 1.22704,0 2.08597,0.899828 0.89983,0.858926 0.89983,2.045063 0,1.227038 -0.89983,2.126866 -0.85893,0.858927 -2.08597,0.858927 z m 14.80626,-3.026694 q 0,-1.186137 -0.89983,-2.045064 -0.85892,-0.899827 -2.08596,-0.899827 -1.18614,0 -2.08596,0.899827 -0.85893,0.858927 -0.85893,2.045064 0,1.227038 0.85893,2.126866 0.89982,0.858927 2.08596,0.858927 1.22704,0 2.08596,-0.858927 0.89983,-0.899828 0.89983,-2.126866 z m -48.71341,5.971585 q -2.41317,0 -4.17193,-1.717853 -1.71785,-1.758755 -1.71785,-4.212831 0,-2.413175 1.71785,-4.131028 1.75876,-1.758755 4.17193,-1.758755 2.45408,0 4.17193,1.758755 1.75875,1.717853 1.75875,4.131028 0,2.454076 -1.75875,4.212831 -1.71785,1.717853 -4.17193,1.717853 z m 29.57162,16.360508 q -2.41318,0 -4.17193,-1.717853 -1.71785,-1.758755 -1.71785,-4.212831 0,-2.413175 1.71785,-4.131028 1.75875,-1.758755 4.17193,-1.758755 2.45407,0 4.17193,1.758755 1.75875,1.717853 1.75875,4.131028 0,2.454076 -1.75875,4.212831 -1.71786,1.717853 -4.17193,1.717853 z m -15.41978,-7.362228 q -0.69532,0 -1.22704,-0.490816 -0.49081,-0.531716 -0.49081,-1.227038 v -1.186136 q 0,-1.513347 -1.34975,-1.758755 -0.81802,-0.163605 -1.43154,0.368111 -0.57262,0.490816 -0.57262,1.26794 v 1.267939 q 0,0.695322 -0.53171,1.227038 -0.49082,0.490815 -1.18614,0.490815 h -1.18614 q -1.51335,0 -1.75875,1.390644 -0.16361,0.777124 0.32721,1.390643 0.53171,0.613519 1.30884,0.613519 h 1.26794 q 0.69532,0 1.18613,0.490815 0.53172,0.490815 0.53172,1.227038 v 1.145236 q 0,1.554248 1.39064,1.799656 0.77713,0.122703 1.39065,-0.368112 0.61352,-0.531716 0.61352,-1.308841 v -1.267939 q 0,-0.695321 0.49081,-1.186137 0.49082,-0.490815 1.22704,-0.490815 h 1.26794 q 0.73622,0 1.26794,-0.613519 0.53171,-0.613519 0.36811,-1.431544 -0.0818,-0.613519 -0.61352,-0.981631 -0.49081,-0.368111 -1.10433,-0.368111 z m -22.25029,-33.82535 q 2.37227,-2.004163 5.88978,-3.353905 3.51751,-1.349741 8.54837,-1.349741 l 2.65858,2.944891 h 19.10089 l 2.65859,-2.944891 q 4.41733,0 7.64853,1.063433 3.2312,1.022531 5.56258,2.699483 4.00832,1.227038 6.95321,4.294634 2.98579,3.026694 4.04923,7.40313 v 0.0409 l 0.1227,0.286309 q 0.0409,0.204506 0.1227,0.490815 0.0818,0.245408 0.20451,0.613519 0.20451,0.736223 0.49082,1.799656 0.32721,1.022532 0.69532,2.290471 0.73622,2.57678 1.63605,5.971585 0.89983,3.353904 1.79965,7.116821 0.85893,3.762917 1.63606,7.689439 0.77712,3.926522 1.22703,7.525834 0.44992,3.517509 0.49082,6.830512 0.0818,3.353904 -0.61352,5.767079 v 0.0409 0 q -0.69532,2.331372 -2.16777,3.967423 -1.43154,1.636051 -3.06759,2.658581 -1.63605,1.06344 -2.90399,1.59515 -0.81803,0.36811 -1.79966,0.44992 -0.94073,0.1227 -1.79966,0.0409 -0.89982,-0.0818 -1.92235,-0.44992 -1.02254,-0.32721 -1.92236,-1.06343 v 0 L 142.64874,90.095254 q -0.89983,-0.613519 -1.92236,-0.613519 h -22.70021 q -1.14523,0 -2.00416,0.65442 v 0 l -0.0818,0.0409 q 0,0.0409 -0.0818,0.0818 -0.0409,0.0409 -0.0818,0.0818 -0.2045,0.163605 -0.57261,0.490815 -0.36812,0.286309 -0.81803,0.65442 -0.44991,0.409013 -0.98163,0.858927 -2.24957,1.881458 -5.03086,4.253732 -1.30884,1.145236 -2.57678,2.208669 -1.26794,1.063433 -2.20866,1.881452 l -2.16777,1.84056 -0.0409,0.0409 v 0 q -1.554251,1.26794 -3.599315,1.55425 -2.004162,0.32721 -3.88562,-0.53172 v 0 q -1.227038,-0.53171 -2.863089,-1.59515 -1.636051,-1.02253 -3.108497,-2.658576 -1.431544,-1.636051 -2.126866,-3.967423 -0.695321,-2.454076 -0.65442,-5.767079 0.0409,-3.313003 0.490815,-6.871413 0.449914,-3.599312 1.186137,-7.525834 0.777124,-3.926522 1.636051,-7.689439 0.899828,-3.762917 1.799656,-7.116821 0.899828,-3.394805 1.595149,-5.971585 0.368112,-1.267939 0.654421,-2.290471 0.32721,-1.063433 0.531716,-1.799656 0.204507,-0.65442 0.368112,-1.104334 l 0.0818,-0.286309 v -0.0409 q 0.899828,-3.681115 3.149398,-6.4215 2.290471,-2.781286 5.439872,-4.335534 z m -2.944893,12.474887 -0.0409,0.0409 -0.0818,0.286309 q -0.0409,0.204506 -0.122704,0.490815 -0.0818,0.245408 -0.204507,0.613519 -0.204506,0.695322 -0.490815,1.717854 -0.286309,1.022531 -0.65442,2.249569 -0.695322,2.535879 -1.59515,5.848882 -0.858926,3.313003 -1.717853,6.994117 -0.858927,3.681114 -1.59515,7.444031 -0.736222,3.762917 -1.145235,7.157722 -0.899828,7.239525 0,10.266219 v 0 q 0.409013,1.513347 1.799656,2.617681 1.390643,1.145236 3.026694,1.881459 0.695321,0.286309 1.30884,-0.204506 l 2.126866,-1.799656 q 0.981631,-0.858927 2.208661,-1.92236 1.26794,-1.063433 2.61769,-2.208669 1.71785,-1.472445 3.3948,-2.90399 1.71785,-1.472445 2.94489,-2.494977 1.22704,-1.022532 1.55425,-1.26794 2.45408,-1.840557 5.56257,-1.840557 h 22.70021 q 2.98579,0 5.48077,1.799656 l 0.0818,0.0818 14.84716,12.55669 q 0.20451,0.163605 0.69532,0.204506 0.24541,0 0.49082,0 0.1227,-0.0409 0.1636,-0.0409 1.55425,-0.695322 2.9449,-1.840558 1.39064,-1.104334 1.88145,-2.617681 0.81803,-3.067595 -0.0818,-10.266219 -0.44991,-3.394805 -1.18614,-7.157722 -0.73622,-3.762917 -1.59514,-7.444031 -0.85893,-3.681114 -1.75876,-6.994117 -0.85893,-3.313003 -1.55425,-5.848882 -0.36811,-1.227038 -0.69532,-2.249569 -0.28631,-1.022532 -0.49081,-1.717854 -0.16361,-0.613519 -0.32721,-1.104334 l -0.0818,-0.286309 -0.0818,-0.163605 v -0.122704 q -0.89983,-3.640213 -3.80382,-5.848881 -2.86309,-2.208669 -6.83051,-2.208669 h -39.01981 q -3.92652,0 -6.83051,2.208669 -2.90399,2.208668 -3.762917,5.848881 l -0.0409,0.122704 z"
         id="text1"
         aria-label="🎮" />
      <path
         style="fill:#ee6100;fill-opacity:1;stroke:none;stroke-width:4.50501;stroke-linecap:round;stroke-linejoin:round;stroke-opacity:0"
         d="m 108.92561,40.727037 c -0.12766,0.282175 -1.51093,0.238852 -1.72898,0.384217 -0.1507,0.100468 -0.22221,0.303218 -0.38421,0.384217 -0.11455,0.05728 -0.27766,-0.07104 -0.38422,0 -0.30141,0.200938 -0.46125,0.576446 -0.76843,0.768435 -0.25218,0.15761 -0.88747,0.207426 -1.15266,0.384217 -0.46555,0.310367 -0.89307,0.813888 -1.34476,1.152652 -1.94321,1.457413 0.69378,-0.531529 -1.15265,0.576326 -0.86364,0.518187 -0.004,0.19635 -0.57633,0.768435 -0.14319,0.14319 -0.41432,0.07061 -0.57632,0.192109 -0.70522,0.528918 -0.11585,0.313608 -0.76844,1.152652 -0.277991,0.357423 -0.682544,0.60312 -0.960539,0.960543 -0.418595,0.538194 -0.619559,1.325586 -0.768435,1.921087 -0.06403,0.128071 -0.128071,0.256145 -0.192109,0.384217 -0.06403,0 -0.16347,-0.05727 -0.192108,0 -0.05728,0.114551 0.05728,0.269666 0,0.384217 -0.02864,0.05728 -0.16347,-0.05727 -0.192109,0 -0.250944,0.501891 -0.205399,1.192525 -0.384217,1.728978 -0.398442,1.195322 -0.02596,-0.124621 -0.192109,1.53687 -0.09814,0.981371 -0.561477,1.758219 -0.768435,2.689521 -0.05557,0.250044 0.04211,0.515776 0,0.768435 -0.08403,0.504187 -0.451265,1.036632 -0.576326,1.536869 -0.104211,0.416846 -0.08628,0.92144 -0.192108,1.344761 -0.465307,1.861232 0.156742,-1.037712 -0.576326,1.34476 -1.528144,4.96647 0.601406,-1.035783 -0.768435,3.073739 -0.379105,1.137319 -0.86414,2.303907 -1.152652,3.457956 -0.676198,2.704796 0.165428,0.08005 -0.384217,1.728978 -0.26121,0.783632 -0.139515,1.489628 -0.384217,2.305304 -0.08229,0.274301 -0.314759,0.490606 -0.384218,0.768434 -0.06212,0.248497 0.03177,0.514268 0,0.768435 -0.08951,0.716045 -0.488254,1.408623 -0.576326,2.113195 0,3.018409 0.101251,-0.516641 -0.192108,1.53687 -0.136957,0.958688 -0.03316,1.927936 -0.192109,2.88163 -0.232609,1.395653 -0.192109,-0.06752 -0.192109,0.960543 0,0.06404 0.04528,0.146828 0,0.192109 -0.303255,0.303257 -0.117713,-0.47415 -0.384217,0.192108 -0.343985,0.859968 -0.358934,1.819953 -0.576326,2.689522 -0.236085,0.94434 -0.604115,1.895715 -0.768435,2.88163 -0.117874,0.707252 -0.120523,3.623773 0,4.22639 0.09958,0.49789 0.569119,1.906675 0.768435,2.305304 0.226676,0.453356 -0.03016,1.860762 0.192109,2.305304 0.292922,0.585848 0.152296,-0.351356 0.384217,0.576326 0.03106,0.124248 -0.0405,0.262718 0,0.384217 0.06633,0.198991 0.288925,0.385742 0.384217,0.576326 0.05728,0.114552 -0.09056,0.293656 0,0.384218 0.04528,0.04528 0.146828,-0.04528 0.192109,0 0.201263,0.201263 0.238445,0.814771 0.384217,0.960543 0.176988,0.176988 1.038598,0.372219 1.344761,0.576326 0.150704,0.100468 0.222218,0.303218 0.384217,0.384217 0.157356,0.07868 0.621692,-0.02935 0.768435,0 0.673711,0.134742 2.564683,0.734801 3.265847,0.384218 0.71955,-0.359775 0.456181,-0.648288 0.576326,-0.768435 0.0805,-0.0805 0.459896,-0.133892 0.576326,-0.192109 0.79951,-0.399753 -0.205369,0.01326 0.192109,-0.384217 0.101251,-0.101251 0.282966,-0.09086 0.384217,-0.192109 0.04528,-0.04528 -0.04528,-0.146827 0,-0.192108 0.04528,-0.04528 0.146828,0.04528 0.192109,0 0.10125,-0.101251 0.09086,-0.282967 0.192108,-0.384218 0.101251,-0.10125 0.282967,-0.09086 0.384218,-0.192108 0.04528,-0.04528 -0.04528,-0.146828 0,-0.192109 0.377283,-0.37728 0.767633,-0.383815 1.152653,-0.576326 0.23053,-0.115266 0.3458,-0.46106 0.57632,-0.576326 0.26723,-0.133612 0.68375,-0.245819 0.96055,-0.384217 0.28638,-0.14319 0.34992,-0.542031 0.57632,-0.768435 0.74975,-0.74975 0.10318,0.04447 0.57633,-0.192109 0.78819,-0.394094 1.74647,-1.938572 2.3053,-2.497412 0.16327,-0.163261 0.39604,-0.239983 0.57633,-0.384217 0.28442,-0.227537 1.72197,-1.814521 1.92109,-2.113196 0.11699,-0.175487 0.16398,-0.466206 0.38421,-0.576326 0.39802,-0.199009 0.88668,-0.615741 1.34476,-0.768434 0.12151,-0.0405 0.29366,0.09056 0.38422,0 0.10125,-0.101251 0.0909,-0.282967 0.19211,-0.384218 0.0906,-0.09056 0.26531,0.04756 0.38422,0 1.09828,0.07479 0.48724,-0.339675 0.96054,-0.576326 0.186,-0.093 0.60204,-0.08118 0.76844,-0.192108 0.4259,-0.283935 0.41956,-0.611677 0.57632,-0.768435 0.12808,-0.128072 0.64037,0.128071 0.76844,0 0.0961,-0.09605 0.0961,-0.288163 0.19211,-0.384217 0.0888,-0.08881 0.46033,0.058 0.57632,0 0.081,-0.0405 0.11111,-0.151609 0.19211,-0.192109 0.15995,-0.07997 0.64658,0.121856 0.76843,0 0.0961,-0.09605 -0.0961,-0.480272 0,-0.576326 0.0744,-0.07438 1.27154,-0.03661 1.34477,0 0.0573,0.02864 -0.0453,0.146828 0,0.192109 0.0901,0.0901 4.51088,-0.167177 4.6106,-0.192109 0.55797,-0.139491 1.14295,-0.300498 1.72898,-0.384217 0.68035,-0.09719 1.43874,0.134889 2.1132,0 0.19857,-0.03971 0.37776,-0.152395 0.57632,-0.192109 0.36944,-0.07389 0.78321,0.07389 1.15265,0 0.49555,-0.09911 0.82818,-0.278207 1.34477,-0.192109 1.39296,0.232162 2.81148,0.384218 4.22639,0.384218 0.70462,0 4.6173,-0.188759 4.99482,0 0.12808,0.06404 0.28297,0.09086 0.38422,0.192108 0.0453,0.04528 -0.0573,0.16347 0,0.192109 0.11455,0.05728 0.25997,-0.03106 0.38422,0 0.27782,0.06946 0.49307,0.305543 0.76843,0.384217 0.65297,0.186563 1.49146,0.265459 2.1132,0.576326 0.29423,0.147117 0.15023,0.342342 0.38421,0.576326 0.19743,0.19743 1.53864,0.578091 1.92109,0.960544 0.16326,0.163261 0.22096,0.413064 0.38422,0.576326 0.10125,0.10125 0.28296,0.09086 0.38421,0.192108 0.11135,0.111347 0.27288,0.65709 0.38422,0.768435 0.0453,0.04528 0.14683,-0.04528 0.19211,0 0.0453,0.04528 0,0.128074 0,0.192109 0.19211,0.192108 0.35898,0.413316 0.57633,0.576326 0.44809,0.336073 1.02042,0.47404 1.34476,0.960543 0.0355,0.05328 -0.0453,0.146828 0,0.192109 0.18997,0.18997 0.93381,0.330747 1.15265,0.768434 0.0573,0.114552 -0.0573,0.269666 0,0.384218 0.0286,0.05728 0.13483,-0.02864 0.19211,0 0.162,0.081 0.23351,0.283749 0.38421,0.384217 0.11915,0.07943 0.29831,0.07756 0.38422,0.192108 0.28033,0.373777 0.26131,0.899092 0.76844,1.152652 0.76494,0.382472 1.69871,0.738167 2.3053,1.344761 0.0453,0.04528 -0.0453,0.146828 0,0.192109 0.0701,0.07013 0.71738,-0.02043 0.76844,0 0.34668,0.138676 0.69651,0.312298 0.96054,0.576326 0.0453,0.04528 -0.0573,0.16347 0,0.192108 0.2291,0.114552 0.51994,-0.06212 0.76843,0 0.224,0.056 0.35234,0.328221 0.57633,0.384218 0.24152,0.06038 0.76145,-0.007 0.96054,0.192108 0.0453,0.04528 -0.0453,0.146828 0,0.192109 0.18714,0.18714 0.90089,0.324564 1.15265,0.576326 0.10126,0.101251 0.0909,0.282967 0.19211,0.384217 0.0453,0.04528 0.13136,-0.02024 0.19211,0 0.28345,0.09448 0.52675,0.303657 0.76844,0.384218 0.72887,0.242956 2.91064,0 3.84217,0 0.27812,0 1.69547,0.15041 1.92109,0 0.39518,-0.263451 1.3242,-1.495745 1.53687,-1.921087 0.16345,-0.326911 0.2295,-0.843219 0.38421,-1.152652 0.064,-0.128071 0.32019,-0.06403 0.38422,-0.192109 0.0573,-0.114551 0,-0.256143 0,-0.384217 0,-0.192109 0,0.384217 0,0.576326 0,0.192109 -0.19211,0.576326 0,0.576326 0.064,0 -0.0286,-0.134832 0,-0.192109 0.20507,-0.410143 0.64173,-0.645829 0.76844,-1.152652 0.14268,-0.570732 0.41179,-2.744671 0.57632,-3.073738 0.081,-0.161999 0.29103,-0.228907 0.38422,-0.384217 0.40667,-0.677792 1.08518,-5.274996 0.96054,-6.147478 -0.11141,-0.779856 -0.44678,-1.528061 -0.57632,-2.305304 -0.0316,-0.189494 0.0988,-0.411593 0,-0.576326 -0.16474,-0.274553 -0.47508,-0.464685 -0.57633,-0.768434 -0.16326,-0.489784 -0.0909,-1.030619 -0.19211,-1.53687 -0.0562,-0.280818 -0.30193,-0.494133 -0.38422,-0.768434 -0.15173,-0.505786 -0.28065,-1.019067 -0.38421,-1.53687 -0.0502,-0.251171 0.0899,-0.528597 0,-0.768434 -0.15083,-0.402217 -0.44049,-0.745128 -0.57633,-1.152652 -0.26895,-0.806855 0.26895,-1.882664 0,-2.689522 -0.18547,-0.556432 -0.28428,-0.260971 -0.38422,-0.960543 -0.27095,-1.896695 -0.008,-3.882385 -0.38421,-5.76326 -0.0795,-0.397346 -0.49443,-1.250214 -0.57633,-1.536869 -0.21347,-0.747136 -0.48935,-1.71463 -0.57633,-2.497413 -0.13307,-1.197676 0.17034,-2.457712 0,-3.650064 -0.10541,-0.737892 -0.15817,-1.819299 -0.38421,-2.497413 -0.0286,-0.08591 -0.17015,-0.104251 -0.19211,-0.192109 -0.0603,-0.241077 0.0603,-0.527357 0,-0.768434 -0.24196,-0.967825 -0.77392,-1.805805 -1.15265,-2.689522 -0.10401,-0.242681 -0.074,-0.53228 -0.19211,-0.768434 -0.081,-0.161999 -0.27555,-0.239321 -0.38422,-0.384218 -0.46108,-0.614772 -0.95072,-1.456465 -1.34476,-2.113195 -0.0329,-0.05491 0.0453,-0.146828 0,-0.192109 -0.53881,-0.538813 0.21542,0.807279 -0.38422,-0.192108 -1.86002,-3.100044 1.48014,1.973514 -1.15265,-1.53687 -0.12834,-0.171119 -1.71018,-2.998538 -1.72898,-3.073738 -0.0311,-0.124249 0.0405,-0.262718 0,-0.384218 -0.16171,-0.48515 -0.98979,-0.694319 -1.34476,-0.960543 -0.21734,-0.16301 -0.33332,-0.454827 -0.57632,-0.576326 -1.21989,-0.609941 -2.53908,-0.167034 -3.84218,-0.384217 -1.63749,-0.272915 -3.17118,-0.744771 -4.80271,-1.152652 -0.83436,-0.208587 -1.15937,-0.489614 -2.1132,-0.576326 -1.19883,-0.108985 -2.45483,0.149405 -3.65006,0 -6.35396,-0.794245 0.37641,-0.08345 -3.07374,-0.576326 -1.44347,-0.206208 -2.97137,0.18089 -4.4185,0 -3.64706,-0.455883 2.11072,0.08511 -2.1132,-0.384217 -1.15114,-0.127905 -2.52412,0.281487 -3.65006,0 -2.55751,-0.639377 -5.40841,-0.384218 -8.06857,-0.384218 -1.33099,0 -2.90672,-0.188523 -4.22639,0 -0.14175,0.02024 -0.24837,0.146828 -0.38421,0.192109 -0.23146,0.07715 -0.53041,-0.05951 -0.76844,0 -1.00365,0.250912 -1.90018,0.825502 -2.88163,1.152652 -0.18225,0.06075 -0.38683,-0.03158 -0.57632,0 -0.19975,0.03329 -0.37987,0.142994 -0.57633,0.192108 -0.12425,0.03106 -0.29366,-0.09056 -0.38422,0 -0.0453,0.04528 0.0453,0.146828 0,0.192109 -0.0453,0.04528 -0.12856,-0.0079 -0.19211,0 -0.4493,0.05616 -0.8965,0.128072 -1.34476,0.192109 z"
         id="path10" />
    </g>
    <g
       id="g1"
       transform="matrix(0.93311169,0,0,0.93311169,9.5929933,17.246103)">
      <circle
         style="fill:#ffffff;fill-opacity:1;stroke-width:3.36467;stroke-linecap:round;stroke-linejoin:round;stroke-opacity:0"
         id="path1"
         cx="132.29167"
         cy="132.29167"
         r="4.8066068" />
      <circle
         style="fill:#ffffff;fill-opacity:1;stroke-width:3.36467;stroke-linecap:round;stroke-linejoin:round;stroke-opacity:0"
         id="path1-3"
         cx="132.29167"
         cy="144.55069"
         r="4.8066068" />
      <circle
         style="fill:#ffffff;fill-opacity:1;stroke-width:3.36467;stroke-linecap:round;stroke-linejoin:round;stroke-opacity:0"
         id="path1-8"
         cx="144.86871"
         cy="132.29167"
         r="4.8066068" />
      <circle
         style="fill:#ffffff;fill-opacity:1;stroke-width:3.36467;stroke-linecap:round;stroke-linejoin:round;stroke-opacity:0"
         id="path1-2"
         cx="119.71463"
         cy="132.29167"
         r="4.8066068" />
      <circle
         style="fill:#ffffff;fill-opacity:1;stroke-width:3.36467;stroke-linecap:round;stroke-linejoin:round;stroke-opacity:0"
         id="path1-85"
         cx="132.29167"
         cy="118.9743"
         r="4.8066068" />
      <circle
         style="fill:#ffffff;fill-opacity:1;stroke-width:3.36467;stroke-linecap:round;stroke-linejoin:round;stroke-opacity:0"
         id="path1-8-7"
         cx="144.86871"
         cy="118.9743"
         r="4.8066068" />
      <circle
         style="fill:#ffffff;fill-opacity:1;stroke-width:3.36467;stroke-linecap:round;stroke-linejoin:round;stroke-opacity:0"
         id="path1-2-6"
         cx="119.71463"
         cy="118.9743"
         r="4.8066068" />
      <circle
         style="fill:#ffffff;fill-opacity:1;stroke-width:3.36467;stroke-linecap:round;stroke-linejoin:round;stroke-opacity:0"
         id="path1-85-7"
         cx="131.75525"
         cy="106.05075"
         r="4.8066068" />
      <circle
         style="fill:#ffffff;fill-opacity:1;stroke-width:3.36467;stroke-linecap:round;stroke-linejoin:round;stroke-opacity:0"
         id="path1-8-7-9"
         cx="144.33229"
         cy="106.05075"
         r="4.8066068" />
      <circle
         style="fill:#ffffff;fill-opacity:1;stroke-width:3.36467;stroke-linecap:round;stroke-linejoin:round;stroke-opacity:0"
         id="path1-2-6-5"
         cx="119.17821"
         cy="106.05075"
         r="4.8066068" />
    </g>
  </g>
</svg>
